<?xml version="1.0" encoding="utf-8"?>
<!-- Generator: Adobe Illustrator 25.4.1, SVG Export Plug-In . SVG Version: 6.00 Build 0)  -->
<svg version="1.1" id="Layer_1" xmlns="http://www.w3.org/2000/svg" xmlns:xlink="http://www.w3.org/1999/xlink" x="0px" y="0px"
	 viewBox="0 0 123.7 119.2" style="enable-background:new 0 0 123.7 119.2;" xml:space="preserve">
<style type="text/css">
	.st0{fill:#AACD05;}
</style>
<path class="st0" d="M2.1,44.9c1.2-3.5,1.2-3.5,4.9-3.6c3.3,0,6.5,0.1,9.8-0.1c1.8-0.1,2.3,0.6,2.3,2.3C19,61.9,19,80.3,19,98.7v3.6
	c-2.6-2.3-4.9-4.9-7-7.7c-3.3-4.3-5.9-9.1-7.9-14.1C3.5,79,2.6,77.6,2.4,76C-0.9,65.7-0.6,55.3,2.1,44.9z"/>
<path class="st0" d="M90.8,52c0-3.1,0-6.1,0-9.2c0-0.8-0.1-1.5,1-1.5c4.4,0,8.8-0.2,13.2,0.6c5.2,1,7.1,4.2,7.8,9.5
	c0.5,4.5-2,8.7-6.1,10.5c-2.2,0.9-4.6,0.8-6.9,0.9s-4.9,0.1-7.4,0.2c-1.3,0-1.7-0.5-1.7-1.8C90.8,58.2,90.8,55.1,90.8,52L90.8,52z"
	/>
<path class="st0" d="M122.8,66.1c-2.9,5-7,8.3-12.9,9.2c-5.5,0.9-11.1,0.6-16.6,0.6c-1.6,0-2.2,0.4-2.3,2.1c-0.3,7.7,0,15.3-0.1,23
	c0,0.5,0.1,1,0.2,1.4c0.5,2.2,0.3,2.4-1.9,2.4c-3.4-0.2-6.8,0-10.1,0.4c-1.2,0.2-1.2-0.3-1.2-1.2c0.1-8.1,0.2-16.2,0.2-24.2
	c0-16.6,0-33.2,0-49.8c0-0.2,0-0.5,0.1-0.7v-1h10.1v0.1h2.1c7.2,0.1,14.4-0.5,21.5,0.7c1,0.2,2.6,1.3,2.9,0.5
	c0.5-1.1-0.8-2.4-1.6-3.4c-6.4-9-15.1-16.1-25.3-20.4c-8.2-3.6-17-5.5-25.9-5.7c-4.3,0-8.6,0.6-12.8,1.6c-15.1,3-28.6,11.6-37.7,24
	c-0.5,0.7-1.6,1.3-1.2,2s1.6,0.5,2.5,0.5c8.5,0,17.1,0,25.6,0v-0.1h8.8c0.6-0.1,1.2-0.1,1.8-0.3s1,0,1.2,0.3h0.5v13h-0.3
	c-0.1,0.2-0.4,0.3-0.8,0.2c-5.1-0.4-10.1-0.1-15.2-0.2c-2.5,0-2.5,0-2.5,2.4v42.2c0,5.7-0.1,11.3,0.1,17c0,1.5-0.3,1.9-1.7,1.8
	c-2.7-0.1-5.4,0-8.3,0c14.3,12.6,38.7,19.3,62.2,10.6c26-9.7,38.5-32.4,39.5-50.2C123,65.2,123,65.7,122.8,66.1z M74.5,84.9
	c-0.4,6.2-2.2,11.8-6.8,16.3c-10.2,9.8-27.8,5.1-31.6-8.5c-1-3.7-1.5-7.4-1.5-11.2c0-0.2,0-0.4,0-0.6v-1.7h12.2v1.7
	c0,0.2,0,0.3,0,0.5c-0.1,3.1,0.8,6.2,2.6,8.7c1.4,2,3.9,2.9,6.2,2.5c2.3-0.4,4.3-2,5-4.2c0.7-2.2,1.1-4.5,1.1-6.8
	c0.4-17.1,0.2-34.3,0.2-51.4c0-1.5,0.1-2.2,2-2c2.9,0.2,5.8,0.2,8.7,0c1.7-0.1,2.3,0.4,2.3,2.2c0,9,0,18.1,0,29.9
	C74.5,66.7,75.1,75.8,74.5,84.9z"/>
</svg>
